<svg width="18" height="21" viewBox="0 0 18 21" fill="none" xmlns="http://www.w3.org/2000/svg">
<path d="M4.375 0.5C4.6875 0.5 5 0.8125 5 1.125V3H12.5V1.125C12.5 0.8125 12.7734 0.5 13.125 0.5C13.4375 0.5 13.75 0.8125 13.75 1.125V3H15C16.3672 3 17.5 4.13281 17.5 5.5V18C17.5 19.4062 16.3672 20.5 15 20.5H2.5C1.09375 20.5 0 19.4062 0 18V5.5C0 4.13281 1.09375 3 2.5 3H3.75V1.125C3.75 0.8125 4.02344 0.5 4.375 0.5ZM16.25 8H1.25V18C1.25 18.7031 1.79688 19.25 2.5 19.25H15C15.6641 19.25 16.25 18.7031 16.25 18V8ZM15 4.25H2.5C1.79688 4.25 1.25 4.83594 1.25 5.5V6.75H16.25V5.5C16.25 4.83594 15.6641 4.25 15 4.25Z" fill="#0B1E39"/>
</svg>
