<svg width="80" height="80" viewBox="0 0 80 80" fill="none" xmlns="http://www.w3.org/2000/svg">
<path d="M41.5184 7.36011H38.3984C31.7584 7.36011 26.3984 12.8001 26.3984 19.4401V39.7601C26.3984 46.4001 31.8384 51.8401 38.4784 51.8401H41.5984C48.2384 51.8401 53.5984 46.4001 53.5984 39.7601V19.4401C53.5984 12.8001 48.2384 7.36011 41.5184 7.36011ZM51.1984 39.7601C51.1984 45.1201 46.8784 49.4401 41.5184 49.4401H38.3984C33.0384 49.4401 28.7184 45.1201 28.7184 39.7601V19.4401C28.7184 14.0801 33.0384 9.76011 38.3984 9.76011H41.5184C46.8784 9.76011 51.1984 14.0801 51.1984 19.4401V39.7601Z" fill="white"/>
<path d="M39.9981 16.4802C39.3581 16.4802 38.7981 17.0402 38.7981 17.6802V26.2402C38.7981 26.8802 39.3581 27.4402 39.9981 27.4402C40.6381 27.4402 41.1981 26.8802 41.1981 26.2402V17.6802C41.1981 16.9602 40.6381 16.4802 39.9981 16.4802ZM44.8781 64.8002L41.1981 68.4802V57.7602C41.1981 57.1202 40.6381 56.5602 39.9981 56.5602C39.3581 56.5602 38.7981 57.1202 38.7981 57.7602V68.5602L35.1181 64.8002C34.6381 64.3202 33.9181 64.3202 33.4381 64.8002C32.9581 65.2802 32.9581 66.0002 33.4381 66.4802L39.1981 72.2402C39.2781 72.3202 39.4381 72.4802 39.5981 72.4802C39.7581 72.5602 39.9181 72.5602 39.9981 72.5602C40.0781 72.5602 40.3181 72.5602 40.3981 72.4802C40.5581 72.4002 40.7181 72.3202 40.7981 72.2402L46.5581 66.4802C47.0381 66.0002 47.0381 65.2802 46.5581 64.8002C46.0781 64.3202 45.3581 64.4002 44.8781 64.8002Z" fill="white"/>
</svg>
