<svg width="156" height="46" viewBox="0 0 156 46" fill="none" xmlns="http://www.w3.org/2000/svg">
<g clip-path="url(#clip0_52234_290)">
<path d="M22.381 45.502C34.7417 45.502 44.762 35.4279 44.762 23.001C44.762 10.574 34.7417 0.5 22.381 0.5C10.0203 0.5 0 10.574 0 23.001C0 35.4279 10.0203 45.502 22.381 45.502Z" fill="white"/>
<path d="M22.3805 0.5C17.8378 0.499699 13.4026 1.88953 9.66459 4.4847C5.92657 7.07988 3.06281 10.7575 1.45403 15.0285C-0.154743 19.2996 -0.432314 23.9618 0.658223 28.3953C1.74876 32.8288 4.15574 36.8235 7.55916 39.8485C8.24518 39.2515 9.05401 38.8144 9.92773 38.5685C11.5265 38.13 12.6496 38.0665 14.3214 37.7252C14.2543 40.416 14.201 42.7457 14.1754 43.9323C14.9 44.2195 15.6392 44.4679 16.39 44.6765C15.7426 39.4218 15.6005 32.532 15.559 29.7817V28.5771V27.827C15.6674 27.8873 15.7598 27.9728 15.8285 28.0764C15.8972 28.1799 15.9402 28.2986 15.9538 28.4223L16.4097 37.2112C18.1861 36.6556 18.6283 35.707 18.7783 34.9034C18.8665 34.4983 19.0886 34.1352 19.4083 33.8733C19.728 33.6113 20.1265 33.4659 20.5389 33.4607C20.722 33.4577 20.9046 33.4797 21.0817 33.5262C21.4881 33.6303 21.9058 33.683 22.3252 33.683C22.7975 33.6553 23.2573 33.5196 23.6694 33.2861C24.0036 33.1085 24.2927 32.8559 24.5142 32.5479C24.5153 32.5427 24.5153 32.5372 24.5142 32.532H24.5004C24.3148 32.665 24.1668 32.7463 24.0424 32.8217C23.5308 33.1173 22.9509 33.2726 22.3608 33.2722C21.766 33.2785 21.1805 33.1243 20.6652 32.8257C19.0598 31.8141 17.7741 30.3639 16.9584 28.6446C16.0544 26.7019 16.0584 23.3879 16.0643 22.8899C16.0711 22.7597 16.1189 22.6351 16.2009 22.5341C16.2829 22.4331 16.3947 22.361 16.5203 22.3283C17.29 22.2826 18.725 22.2529 19.4632 22.5624C20.308 22.9157 21.0679 23.6836 21.3778 24.9874C21.3783 25.0044 21.3854 25.0205 21.3976 25.0324C21.4097 25.0442 21.426 25.0509 21.4429 25.0509C21.4597 25.0509 21.4757 25.0442 21.4876 25.0323C21.4994 25.0204 21.5061 25.0042 21.5061 24.9874C21.4469 24.0309 21.133 22.8998 19.8165 22.2092C19.1566 21.9049 18.4384 21.7498 17.7124 21.7548C17.9513 21.4413 18.0046 20.9233 18.0046 20.5463C18.0046 20.5463 18.0046 20.4987 18.0322 20.4848C18.0442 20.481 18.0572 20.4811 18.0692 20.485C18.0812 20.4889 18.0917 20.4965 18.0993 20.5066C18.6322 21.09 19.3625 21.3639 19.9113 21.0861C20.4916 20.7904 20.6889 19.947 20.5034 19.1017C20.5034 19.1017 20.5034 19.056 20.531 19.0421C20.5418 19.0381 20.5535 19.0376 20.5646 19.0409C20.5756 19.0441 20.5853 19.0508 20.5922 19.06C20.7834 19.3637 21.0479 19.6138 21.3611 19.7872C21.6743 19.9605 22.0259 20.0514 22.3835 20.0514C22.741 20.0514 23.0926 19.9605 23.4058 19.7872C23.719 19.6138 23.9835 19.3637 24.1747 19.06C24.1816 19.0508 24.1913 19.0441 24.2023 19.0409C24.2134 19.0376 24.2251 19.0381 24.2359 19.0421C24.2675 19.056 24.2635 19.1017 24.2635 19.1017C24.0661 19.953 24.2635 20.7983 24.8556 21.0861C25.4024 21.3639 26.1327 21.0861 26.6656 20.5066C26.6732 20.4965 26.6837 20.4889 26.6957 20.485C26.7078 20.4811 26.7207 20.481 26.7327 20.4848C26.7643 20.4987 26.7604 20.5463 26.7604 20.5463C26.7604 20.9233 26.8137 21.4413 27.0525 21.7548C26.3265 21.7498 25.6083 21.9049 24.9484 22.2092C23.6319 22.8958 23.318 24.0269 23.2588 24.9874C23.2588 25.0042 23.2655 25.0204 23.2773 25.0323C23.2892 25.0442 23.3052 25.0509 23.322 25.0509C23.3305 25.0511 23.3389 25.0497 23.3468 25.0466C23.3547 25.0435 23.3619 25.0389 23.3679 25.033C23.374 25.0271 23.3788 25.02 23.3821 25.0121C23.3854 25.0043 23.3871 24.9959 23.3871 24.9874C23.697 23.6836 24.4569 22.9157 25.3017 22.5624C26.038 22.2529 27.4729 22.2826 28.2427 22.3283C28.3607 22.3653 28.4638 22.4395 28.5366 22.5399C28.6095 22.6403 28.6483 22.7616 28.6473 22.8859C28.6482 22.9004 28.6482 22.915 28.6473 22.9296V22.8859C28.6473 23.6677 28.675 26.7138 27.7453 28.7021C27.2318 29.7405 26.5418 30.6807 25.7064 31.4803L25.7261 32.7086C25.7401 33.4213 25.7981 34.1324 25.8998 34.8379C26.038 35.7309 26.5689 36.6873 28.3394 37.2191L28.7973 28.4283C28.8122 28.3049 28.8557 28.1868 28.9242 28.0834C28.9928 27.98 29.0845 27.8942 29.1921 27.833V28.5751L29.1803 29.7896C29.1467 32.5439 28.9967 39.4436 28.3493 44.7003C29.1007 44.4917 29.8406 44.2433 30.5659 43.9562C30.5402 42.7655 30.4869 40.4358 30.4178 37.7291C32.0916 38.0704 33.0647 38.1478 34.6615 38.5864C35.5693 38.8354 36.4067 39.2941 37.1071 39.9258C40.5331 36.9126 42.9636 32.9205 44.074 28.4823C45.1843 24.0441 44.9219 19.371 43.3216 15.0867C41.7213 10.8025 38.8593 7.11078 35.1176 4.50446C31.3759 1.89815 26.9325 0.501172 22.3805 0.5ZM22.3805 18.5937C22.1787 18.5941 21.9813 18.5343 21.8132 18.4219C21.6452 18.3095 21.5141 18.1495 21.4365 17.9622C21.3589 17.7749 21.3383 17.5686 21.3773 17.3695C21.4163 17.1704 21.5131 16.9875 21.6556 16.8437C21.798 16.6999 21.9796 16.6019 22.1775 16.5619C22.3754 16.5219 22.5806 16.5419 22.7672 16.6191C22.9538 16.6964 23.1134 16.8276 23.2259 16.9961C23.3384 17.1646 23.3986 17.3628 23.399 17.5658C23.399 17.8373 23.2917 18.0978 23.1007 18.2898C22.9097 18.4818 22.6506 18.5897 22.3805 18.5897M35.1688 24.5726C35.1367 25.0653 35.0357 25.5509 34.8688 26.0153C34.769 26.2908 34.6441 26.5566 34.4957 26.809C34.4642 26.8626 34.4306 26.9162 34.397 26.9678C34.1916 27.2847 33.9227 27.555 33.6075 27.7615C33.5542 27.7953 33.499 27.825 33.4417 27.8548C33.3302 27.9163 33.2141 27.9687 33.0943 28.0116C32.914 28.0752 32.7274 28.1192 32.5377 28.1425C32.4112 28.1565 32.284 28.1624 32.1568 28.1604C31.8997 28.1542 31.6447 28.1128 31.3988 28.0374C31.2143 27.9803 31.0364 27.9038 30.8679 27.8092C30.7545 27.7457 30.6463 27.6733 30.5442 27.5929C30.1312 27.2722 29.8165 26.841 29.6362 26.3487C29.5438 26.1036 29.4879 25.8462 29.4704 25.5847L29.4605 25.3862V25.2116V24.8624L29.4428 23.5467C29.4428 23.0824 29.4428 22.4692 29.3994 22.0386C29.2498 20.2666 28.4481 18.6144 27.1512 17.405C26.5077 16.8122 25.7628 16.3416 24.9524 16.0159C23.3038 15.3862 21.4828 15.3862 19.8343 16.0159C19.0241 16.3421 18.2792 16.8126 17.6355 17.405C16.3385 18.6144 15.5369 20.2666 15.3873 22.0386C15.3498 22.4692 15.3498 23.0824 15.3439 23.5467L15.3261 24.8624V25.2116V25.3862V25.5847C15.3086 25.8462 15.2527 26.1036 15.1603 26.3487C14.9806 26.8413 14.6658 27.2727 14.2523 27.5929C14.1502 27.6733 14.042 27.7457 13.9286 27.8092C13.7601 27.9038 13.5822 27.9803 13.3977 28.0374C13.1518 28.1128 12.8968 28.1542 12.6397 28.1604C12.5125 28.1624 12.3853 28.1564 12.2588 28.1425C12.0691 28.1189 11.8826 28.075 11.7022 28.0116C11.5827 27.9679 11.4666 27.9155 11.3548 27.8548C11.2976 27.825 11.2443 27.7953 11.191 27.7615C10.8754 27.5554 10.6065 27.285 10.4014 26.9678C10.3679 26.9162 10.3343 26.8626 10.3028 26.809C10.1542 26.557 10.0299 26.2912 9.93167 26.0153C9.76323 25.5513 9.66154 25.0655 9.62968 24.5726C9.62968 24.4992 9.61784 24.4258 9.61587 24.3504C9.61567 24.3537 9.61567 24.357 9.61587 24.3603V24.3504C9.61557 24.0198 9.68851 23.6933 9.82939 23.3945C9.97027 23.0958 10.1755 22.8324 10.4303 22.6234C10.6851 22.4144 10.983 22.265 11.3023 22.1862C11.6217 22.1073 11.9545 22.101 12.2766 22.1676C12.4192 22.197 12.5587 22.2402 12.693 22.2965C12.9562 22.4091 13.1954 22.5715 13.3977 22.7748C13.447 22.8244 13.4944 22.878 13.5398 22.9315C13.82 23.2741 13.9923 23.6928 14.0349 24.1342C14.0774 24.5756 13.9882 25.0198 13.7786 25.41C13.7115 25.5365 13.6314 25.6555 13.5398 25.7652C13.4944 25.8208 13.447 25.8744 13.3977 25.924C13.1954 26.1273 12.9562 26.2897 12.693 26.4022C12.5587 26.4586 12.4192 26.5018 12.2766 26.5312C12.1298 26.5616 11.9803 26.5769 11.8305 26.5769H11.6982C11.6115 26.5714 11.5252 26.5608 11.4397 26.5451L11.3133 26.5193C11.1056 26.4709 10.9061 26.392 10.7212 26.2852C10.6176 26.2267 10.5186 26.1604 10.4251 26.0867C10.4099 26.0752 10.3913 26.0692 10.3722 26.0699C10.3532 26.0705 10.335 26.0778 10.3206 26.0903C10.3063 26.1029 10.2967 26.12 10.2934 26.1389C10.2902 26.1578 10.2935 26.1772 10.3028 26.1939C10.3859 26.3482 10.4781 26.4973 10.5791 26.6404C10.7018 26.8169 10.8487 26.9752 11.0153 27.1107C11.1788 27.2446 11.3602 27.3548 11.5541 27.4381C11.6971 27.5027 11.8467 27.5512 12.0002 27.5829C12.254 27.6357 12.5146 27.6471 12.772 27.6167C13.1282 27.5673 13.467 27.431 13.7589 27.2198C13.8013 27.191 13.8422 27.1598 13.8813 27.1265C13.9207 27.0948 13.9582 27.0611 13.9957 27.0253C14.1816 26.851 14.3358 26.6455 14.4517 26.4181C14.4974 26.3272 14.5363 26.233 14.5682 26.1363C14.6014 26.0404 14.6278 25.9423 14.6471 25.8426C14.6652 25.743 14.6764 25.6422 14.6807 25.541V25.3882V25.2136V24.8643L14.6629 23.4753C14.6629 23.2431 14.6629 23.0109 14.6629 22.7768C14.6629 22.5426 14.6629 22.3045 14.6807 22.0564C14.7365 21.0783 14.9756 20.1196 15.3853 19.2307C15.5403 18.8979 15.7191 18.5769 15.9202 18.2702C16.0525 18.0718 16.1965 17.8733 16.3485 17.6749C16.5005 17.4765 16.6624 17.2979 16.8321 17.1212C16.915 17.0339 17.0019 16.9486 17.0907 16.8633C17.357 16.61 17.6413 16.3765 17.9414 16.1648C18.0401 16.0953 18.1388 16.0278 18.2454 15.9663C18.4514 15.8348 18.6642 15.7142 18.8829 15.6052C19.9769 15.0508 21.185 14.7626 22.4101 14.7638C23.6357 14.7629 24.8445 15.0511 25.9393 15.6052C26.1571 15.7147 26.3692 15.8352 26.5748 15.9663C26.6775 16.0318 26.7722 16.0993 26.8808 16.1648C27.1798 16.3771 27.4635 16.6105 27.7295 16.8633C27.8183 16.9486 27.9052 17.0339 27.9901 17.1212C28.1578 17.2979 28.3197 17.4824 28.4717 17.6749C28.6236 17.8674 28.7677 18.0718 28.9 18.2702C29.0921 18.5758 29.2623 18.8948 29.4092 19.2247C29.8189 20.1136 30.058 21.0724 30.1139 22.0505C30.1277 22.2985 30.1316 22.5366 30.1316 22.7708C30.1316 23.005 30.1316 23.2371 30.1316 23.4693L30.1139 24.8584V25.2076V25.3823V25.5351C30.1181 25.6363 30.1293 25.737 30.1474 25.8367C30.1668 25.9363 30.1932 26.0345 30.2264 26.1304C30.258 26.2274 30.2976 26.3217 30.3448 26.4122C30.4593 26.6399 30.613 26.8455 30.7988 27.0194C30.8363 27.0551 30.8738 27.0888 30.9133 27.1206C30.9527 27.1523 30.9942 27.1841 31.0356 27.2139C31.3275 27.4251 31.6663 27.5613 32.0225 27.6107C32.2799 27.6411 32.5405 27.6297 32.7943 27.577C32.9478 27.5453 33.0974 27.4967 33.2404 27.4321C33.4346 27.3493 33.616 27.2391 33.7792 27.1047C33.9459 26.9693 34.0927 26.811 34.2155 26.6344C34.3164 26.4913 34.4087 26.3422 34.4918 26.1879C34.5011 26.1712 34.5044 26.1518 34.5011 26.133C34.4979 26.1141 34.4882 26.0969 34.4739 26.0844C34.4595 26.0718 34.4413 26.0646 34.4223 26.0639C34.4033 26.0633 34.3846 26.0692 34.3694 26.0808C34.1131 26.2929 33.812 26.4436 33.4891 26.5213L33.3628 26.5471C33.2773 26.5628 33.1909 26.5734 33.1042 26.5788H32.972C32.8221 26.5789 32.6726 26.5636 32.5259 26.5332C32.3832 26.5038 32.2438 26.4606 32.1094 26.4042C31.8462 26.2917 31.607 26.1293 31.4047 25.926C31.3554 25.8764 31.308 25.8228 31.2626 25.7672C31.1716 25.657 31.0916 25.538 31.0238 25.412C30.849 25.0858 30.7574 24.721 30.7574 24.3504C30.7574 23.9798 30.849 23.615 31.0238 23.2887C31.0926 23.1633 31.1726 23.0445 31.2626 22.9335C31.308 22.8799 31.3554 22.8264 31.4047 22.7768C31.607 22.5734 31.8462 22.4111 32.1094 22.2985C32.2438 22.2422 32.3832 22.199 32.5259 22.1695C32.848 22.1026 33.1809 22.1087 33.5004 22.1873C33.8199 22.266 34.118 22.4154 34.3728 22.6245C34.6277 22.8335 34.833 23.0971 34.9738 23.396C35.1145 23.695 35.1872 24.0216 35.1866 24.3524V24.3623C35.1868 24.359 35.1868 24.3557 35.1866 24.3524C35.1866 24.4278 35.1866 24.5012 35.1747 24.5746M36.205 25.6045C35.9556 25.6043 35.7079 25.5614 35.4728 25.4775C35.7681 24.8081 35.7886 24.0486 35.5299 23.3641C35.2712 22.6796 34.7541 22.1255 34.0911 21.8223V20.0661C33.96 20.081 33.8283 20.0889 33.6963 20.0899C33.151 20.0909 32.6134 19.9603 32.1287 19.7091C31.644 19.4578 31.2264 19.0933 30.911 18.6461C30.5955 18.1989 30.3915 17.682 30.316 17.1391C30.2405 16.5961 30.2957 16.0428 30.4771 15.5258C30.6519 15.7053 30.8868 15.8132 31.1363 15.8286C31.3857 15.8439 31.632 15.7656 31.8272 15.6088C32.0225 15.452 32.1529 15.2279 32.1932 14.9799C32.2335 14.7319 32.1808 14.4777 32.0453 14.2666C31.9097 14.0555 31.7011 13.9025 31.4597 13.8372C31.2184 13.772 30.9615 13.7991 30.739 13.9134C30.5164 14.0277 30.344 14.221 30.2551 14.4559C30.1662 14.6907 30.1673 14.9504 30.258 15.1845C30.106 15.2035 29.9531 15.2134 29.8 15.2142C28.8574 15.2138 27.9431 14.8904 27.2078 14.2974C26.4726 13.7043 25.9604 12.877 25.7557 11.9519C26.0058 11.9789 26.2574 11.9163 26.4663 11.7753C26.6408 11.6699 26.7854 11.521 26.886 11.343C26.9866 11.165 27.0399 10.964 27.0407 10.7593C27.0357 10.5501 26.9751 10.3461 26.8652 10.1683C26.7554 9.99061 26.6002 9.84568 26.4158 9.74857C26.2315 9.65146 26.0246 9.60571 25.8167 9.61607C25.6088 9.62643 25.4075 9.69252 25.2336 9.80748C25.0597 9.92245 24.9195 10.0821 24.8277 10.2699C24.7358 10.4576 24.6956 10.6667 24.7112 10.8754C24.7268 11.084 24.7977 11.2847 24.9165 11.4566C25.0352 11.6284 25.1975 11.7652 25.3866 11.8527C24.5539 12.5844 23.4855 12.9877 22.3795 12.9877C21.2735 12.9877 20.2051 12.5844 19.3724 11.8527C19.6185 11.7382 19.8172 11.541 19.9341 11.2951C20.0511 11.0492 20.079 10.7699 20.0131 10.5055C19.9472 10.2411 19.7916 10.0081 19.5731 9.84664C19.3546 9.68522 19.0869 9.60551 18.8162 9.62126C18.5455 9.63701 18.2888 9.74723 18.0902 9.93291C17.8917 10.1186 17.7639 10.3681 17.7287 10.6384C17.6936 10.9087 17.7534 11.1829 17.8978 11.4136C18.0422 11.6443 18.2621 11.8172 18.5197 11.9023C18.6763 11.9532 18.8416 11.9708 19.0053 11.9539C18.8005 12.8793 18.288 13.7069 17.5524 14.3C16.8167 14.8931 15.9019 15.2163 14.959 15.2162C14.8052 15.2147 14.6516 15.2041 14.4991 15.1845C14.5893 14.9494 14.5894 14.689 14.4993 14.4539C14.4093 14.2187 14.2356 14.0256 14.0119 13.912C13.7882 13.7984 13.5305 13.7724 13.2888 13.839C13.0471 13.9057 12.8387 14.0603 12.704 14.2727C12.5693 14.4852 12.5179 14.7404 12.5598 14.9888C12.6018 15.2372 12.734 15.4611 12.9309 15.617C13.1278 15.7729 13.3752 15.8497 13.6253 15.8325C13.8753 15.8153 14.11 15.7053 14.2839 15.5238C14.4131 15.8868 14.4799 16.2694 14.4813 16.6549C14.4808 17.5652 14.1209 18.4381 13.4806 19.0818C12.8403 19.7255 11.9721 20.0874 11.0666 20.0879C10.9347 20.0871 10.8029 20.0791 10.6719 20.0641V21.8223C10.0089 22.1255 9.49179 22.6796 9.23306 23.3641C8.97432 24.0486 8.99485 24.8081 9.29019 25.4775C8.93984 25.6029 8.56368 25.6374 8.19654 25.5779C7.82939 25.5183 7.48312 25.3666 7.18979 25.1368C6.89645 24.907 6.66553 24.6065 6.51839 24.2631C6.37125 23.9197 6.31265 23.5446 6.34802 23.1724C6.3834 22.8002 6.51159 22.443 6.72074 22.1338C6.92989 21.8247 7.21324 21.5736 7.54456 21.4037C7.87588 21.2339 8.24446 21.1509 8.61618 21.1623C8.9879 21.1737 9.35074 21.2792 9.67113 21.469L10.3659 20.0165C9.53851 19.844 8.80417 19.3691 8.30502 18.6836C7.80588 17.9982 7.57743 17.1509 7.66389 16.3058C7.75035 15.4608 8.14558 14.678 8.77307 14.109C9.40057 13.5401 10.2157 13.2254 11.0607 13.2259H11.2344C11.2683 13.2179 11.2978 13.1967 11.3162 13.1669C11.3347 13.1372 11.3408 13.1013 11.3331 13.0671C10.8586 12.2147 10.697 11.2218 10.8766 10.2617C11.0562 9.30173 11.5656 8.43565 12.3157 7.81478C13.0658 7.19392 14.0091 6.85772 14.9807 6.86492C15.9523 6.87211 16.8905 7.22224 17.6315 7.85415C17.6491 7.86941 17.6704 7.8796 17.6933 7.88363C17.7161 7.88766 17.7397 7.88538 17.7613 7.87703C17.783 7.86868 17.802 7.85457 17.8163 7.83622C17.8307 7.81786 17.8398 7.79594 17.8427 7.77279C17.9898 6.66843 18.5306 5.65527 19.3646 4.92154C20.1987 4.1878 21.2693 3.78337 22.3775 3.78337C23.4858 3.78337 24.5564 4.1878 25.3905 4.92154C26.2245 5.65527 26.7653 6.66843 26.9124 7.77279C26.9156 7.79577 26.9248 7.81747 26.9391 7.83568C26.9534 7.8539 26.9723 7.86796 26.9938 7.87644C27.0152 7.88492 27.0386 7.88751 27.0614 7.88394C27.0842 7.88037 27.1056 7.87077 27.1236 7.85613C27.8648 7.22381 28.8035 6.87352 29.7756 6.86651C30.7477 6.8595 31.6913 7.19621 32.4415 7.81778C33.1917 8.43935 33.7007 9.30623 33.8796 10.2669C34.0584 11.2275 33.8958 12.2208 33.42 13.0731C33.4121 13.106 33.4171 13.1406 33.434 13.1698C33.451 13.1991 33.4785 13.2206 33.5108 13.2299C33.57 13.2299 33.6312 13.2299 33.6904 13.2299C34.5356 13.2289 35.3511 13.5432 35.9789 14.112C36.6068 14.6808 37.0024 15.4636 37.0891 16.3088C37.1758 17.154 36.9475 18.0015 36.4484 18.6872C35.9492 19.3729 35.2147 19.848 34.3872 20.0204L35.082 21.473C35.4228 21.2712 35.8115 21.1656 36.207 21.1674C36.7816 21.1862 37.3264 21.4292 37.7257 21.845C38.125 22.2609 38.3475 22.8167 38.346 23.3947C38.3444 23.9727 38.119 24.5274 37.7175 24.941C37.3159 25.3547 36.7699 25.5948 36.1952 25.6105M19.4257 19.947C19.1573 20.082 18.8039 19.9034 18.6362 19.562C18.4684 19.2207 18.5671 18.8377 18.8336 18.7088C19.1 18.5798 19.4652 18.7484 19.6231 19.0937C19.781 19.439 19.6823 19.816 19.4257 19.947ZM26.1149 19.562C25.9551 19.9034 25.6017 20.082 25.3254 19.945C25.0491 19.8081 24.976 19.4331 25.128 19.0937C25.1542 19.016 25.1955 18.9443 25.2495 18.8828C25.3036 18.8213 25.3693 18.7712 25.4428 18.7356C25.5163 18.6999 25.5962 18.6793 25.6777 18.6751C25.7592 18.6708 25.8408 18.6829 25.9176 18.7107C26.1899 18.8377 26.2807 19.2207 26.1149 19.562Z" fill="#FF0000"/>
<path d="M20.7039 39.4697C20.3718 39.2348 19.9769 39.1062 19.5709 39.1006H16.9023V39.5927H20.6664C20.6802 39.5921 20.6934 39.5872 20.7043 39.5787C20.7152 39.5702 20.7232 39.5586 20.7273 39.5454C20.7314 39.5322 20.7313 39.518 20.7272 39.5048C20.723 39.4916 20.7148 39.4801 20.7039 39.4717" fill="#FF0000"/>
<path d="M24.0576 39.4697C24.0465 39.4782 24.0384 39.4899 24.0343 39.5033C24.0301 39.5167 24.0303 39.531 24.0346 39.5443C24.0389 39.5576 24.0473 39.5692 24.0585 39.5775C24.0697 39.5858 24.0831 39.5905 24.0971 39.5907H27.8591V39.1006H25.1906C24.7846 39.1062 24.3897 39.2348 24.0576 39.4697Z" fill="#FF0000"/>
<path d="M20.947 24.9892C20.9568 24.9916 20.967 24.9908 20.9764 24.9871C20.9858 24.9834 20.9938 24.9769 20.9994 24.9685C21.005 24.96 21.0079 24.9501 21.0077 24.94C21.0075 24.9299 21.0042 24.92 20.9983 24.9118C20.8674 24.7475 20.6815 24.6367 20.4752 24.6003C20.1732 24.5408 19.9581 24.6181 19.4627 24.6003C18.9946 24.6047 18.5312 24.5065 18.1047 24.3126C17.8802 24.191 17.6308 24.1234 17.376 24.1151C17.1212 24.1069 16.8679 24.1581 16.6362 24.2649C16.5927 24.2848 16.6046 24.3562 16.6539 24.3522C16.8133 24.3356 16.9743 24.3516 17.1273 24.3994C17.2804 24.4472 17.4221 24.5256 17.5441 24.6301C17.9437 24.921 18.403 25.1183 18.8883 25.2075C19.2755 25.2551 19.6683 25.2234 20.043 25.1142C20.33 25.0005 20.6405 24.9596 20.947 24.9952" fill="#FF0000"/>
<path d="M25.8704 25.2017C26.3561 25.112 26.816 24.9147 27.2165 24.6242C27.3385 24.5198 27.4803 24.4413 27.6333 24.3936C27.7863 24.3458 27.9473 24.3298 28.1067 24.3464C28.1541 24.3464 28.1679 24.2789 28.1225 24.2591C27.8891 24.1524 27.6342 24.1016 27.378 24.1109C27.1218 24.1202 26.8712 24.1893 26.6461 24.3127C26.2208 24.512 25.7573 24.6157 25.2881 24.6163C24.7927 24.6163 24.5775 24.5468 24.2755 24.6163C24.0696 24.6521 23.8841 24.763 23.7544 24.9278C23.7475 24.9356 23.7432 24.9454 23.7424 24.9558C23.7415 24.9663 23.7441 24.9767 23.7497 24.9855C23.7553 24.9943 23.7636 25.001 23.7734 25.0046C23.7832 25.0081 23.7939 25.0084 23.8038 25.0052C24.1103 24.9696 24.4208 25.0105 24.7078 25.1243C25.0825 25.2334 25.4753 25.2651 25.8625 25.2175" fill="#FF0000"/>
<path d="M23.192 28.4797C23.265 28.436 23.2907 28.4003 23.2867 28.3745C23.2828 28.3487 23.2078 28.311 23.0893 28.3507C22.8638 28.4505 22.6202 28.502 22.3738 28.502C22.1275 28.502 21.8838 28.4505 21.6583 28.3507C21.5458 28.313 21.4609 28.3348 21.4609 28.3824C21.4609 28.4301 21.4807 28.442 21.5419 28.4777C22.2426 28.8905 22.4932 28.8905 23.1762 28.4777" fill="#FF0000"/>
<path d="M20.9327 30.4384C21.0782 30.6675 21.2828 30.8527 21.5248 30.9742C21.7956 31.0945 22.0883 31.1567 22.3844 31.1567C22.6804 31.1567 22.9732 31.0945 23.244 30.9742C23.486 30.8527 23.6906 30.6675 23.8361 30.4384C23.8943 30.3446 23.9693 30.2626 24.0572 30.1963C24.0967 30.1625 24.1026 30.1268 24.0809 30.0951C24.0592 30.0633 23.9881 30.0792 23.9881 30.0792C23.8091 30.1383 23.6177 30.1486 23.4335 30.109C23.1315 30.0197 22.7782 30.0018 22.5966 30.1625C22.5456 30.2218 22.4759 30.2617 22.3992 30.2756C22.3184 30.264 22.2442 30.2239 22.19 30.1625C22.0084 30.0018 21.6551 30.0197 21.3531 30.109C21.1688 30.1485 20.9775 30.1382 20.7984 30.0792C20.7984 30.0792 20.7333 30.0574 20.7076 30.0951C20.7022 30.1031 20.6985 30.1121 20.6966 30.1216C20.6948 30.1311 20.6949 30.1409 20.6969 30.1504C20.6989 30.1598 20.7029 30.1688 20.7084 30.1767C20.714 30.1846 20.7211 30.1912 20.7294 30.1963C20.8173 30.2626 20.8922 30.3446 20.9504 30.4384" fill="#FF0000"/>
<path d="M80.8566 21.7668H74.1042V16.3911H70.8711V29.6091H74.1042V24.4636H80.8566V29.6091H84.0897V16.3911H80.8566V21.7668Z" fill="white"/>
<path d="M114.737 24.7255H117.859V26.3131C117.208 26.8111 116.231 27.2318 114.804 27.2497C112.149 27.2795 110.333 25.301 110.333 22.9575C110.333 20.3242 112.443 18.7466 114.843 18.7466C116.833 18.7466 118.874 20.1158 118.874 20.1158L120.08 17.9627C118.569 16.7228 116.678 16.0475 114.729 16.0518C110.189 16.0518 107.262 19.0641 107.262 22.9515C107.262 26.6544 109.946 29.8373 114.616 29.8373C116.814 29.8843 118.953 29.1189 120.626 27.6863V22.257H114.737V24.7255Z" fill="white"/>
<path d="M130.485 24.3406H137.577V21.7549H130.485V18.9768H138.11V16.3911H127.273V29.6091H138.514V27.0235H130.485V24.3406Z" fill="white"/>
<path d="M147.969 27.0235V24.3406H155.063V21.7549H147.969V18.9768H155.596V16.3911H144.758V29.6091H155.999V27.0235H147.969Z" fill="white"/>
<path d="M94.8443 16.3911L88.6445 29.6091H91.9132L92.7027 27.841H99.8479L100.653 29.6091H103.969L97.7793 16.3911H94.8443ZM93.9126 25.1899L96.2694 19.9789L98.6379 25.1899H93.9126Z" fill="white"/>
<path d="M60.0539 18.8061C60.8025 18.8042 61.5439 18.954 62.2336 19.2465C62.9234 19.539 63.5475 19.9683 64.0686 20.5087L66.0424 18.7783C65.3123 17.9055 64.3985 17.2067 63.3669 16.7324C62.3353 16.2581 61.2118 16.0202 60.0776 16.0359C55.7036 16.0359 52.6758 19.197 52.6758 23.0031C52.6758 26.7417 55.4964 29.9643 59.9473 29.9643C63.1054 29.9643 64.8404 28.4244 66.0424 26.9599L63.9502 25.0371C63.2968 25.8785 62.1007 27.1266 59.9039 27.1266C59.368 27.1308 58.8367 27.0267 58.3416 26.8205C57.8465 26.6144 57.3976 26.3104 57.0215 25.9265C56.6455 25.5427 56.3499 25.0869 56.1523 24.5861C55.9547 24.0852 55.8592 23.5496 55.8714 23.011C55.9049 20.594 57.7347 18.8061 60.0539 18.8061Z" fill="white"/>
</g>
<defs>
<clipPath id="clip0_52234_290">
<rect width="156" height="45" fill="white" transform="translate(0 0.5)"/>
</clipPath>
</defs>
</svg>
